{
	"asset":{
		"version":"2.0",
		"generator":"Created using the official Cinema 4D glTF Exporter 1.000x284978"
	},
	"scenes":[{
		"nodes":[0]
	}],
	"nodes":[{
		"name":"KFC",
		"translation":[0.0,
		0.0,
		1.2524011135101319],
		"rotation":[0.0,
		0.0,
		0.0,
		-1.0],
		"scale":[0.009999999776482582,
		0.009999999776482582,
		0.009999999776482582],
		"children":[1,
		2,
		3]
	},
	{
		"name":"Cylinders",
		"translation":[0.0,
		0.0,
		2.842170943040401e-14],
		"rotation":[0.0,
		0.0,
		0.0,
		-1.0],
		"scale":[1.0,
		1.0,
		1.0],
		"mesh":0
	},
	{
		"name":"text",
		"translation":[0.0,
		0.0,
		2.842170943040401e-14],
		"rotation":[0.0,
		0.0,
		0.0,
		-1.0],
		"scale":[1.0,
		1.0,
		1.0],
		"mesh":1
	},
	{
		"name":"burger",
		"translation":[0.37314051389694216,
		33.8997688293457,
		0.0],
		"rotation":[0.7061377167701721,
		0.037007108330726626,
		0.037007108330726626,
		-0.7061377167701721],
		"scale":[57.86799621582031,
		57.86799621582031,
		57.86799621582031],
		"mesh":2
	}],
	"meshes":[{
		"name":"Cylinders",
		"primitives":[{
			"attributes":{
				"NORMAL":2,
				"POSITION":1,
				"TEXCOORD_0":3
			},
			"indices":0,
			"material":0
		}]
	},
	{
		"name":"text",
		"primitives":[{
			"attributes":{
				"NORMAL":6,
				"POSITION":5,
				"TEXCOORD_0":7
			},
			"indices":4,
			"material":0
		}]
	},
	{
		"name":"burger",
		"primitives":[{
			"attributes":{
				"NORMAL":10,
				"POSITION":9,
				"TEXCOORD_0":11
			},
			"indices":8,
			"material":1
		}]
	}],
	"accessors":[{
		"bufferView":0,
		"type":"SCALAR",
		"componentType":5123,
		"min":[0],
		"count":768,
		"byteOffset":0,
		"max":[287]
	},
	{
		"bufferView":1,
		"type":"VEC3",
		"componentType":5126,
		"min":[-115.50917053222656,
		-69.74039459228516,
		-128.3460235595703],
		"count":288,
		"byteOffset":0,
		"max":[121.4720458984375,
		167.24081420898438,
		-87.43557739257813]
	},
	{
		"bufferView":1,
		"type":"VEC3",
		"componentType":5126,
		"min":[-0.9994615316390991,
		-0.9994615316390991,
		-1.0],
		"count":288,
		"byteOffset":12,
		"max":[0.9994615316390991,
		0.9994615316390991,
		1.0]
	},
	{
		"bufferView":1,
		"type":"VEC2",
		"componentType":5126,
		"min":[0.05388928949832916,
		0.030583173036575319],
		"count":288,
		"byteOffset":24,
		"max":[0.38425129652023318,
		0.9561015367507935]
	},
	{
		"bufferView":2,
		"type":"SCALAR",
		"componentType":5123,
		"min":[0],
		"count":21072,
		"byteOffset":0,
		"max":[7819]
	},
	{
		"bufferView":3,
		"type":"VEC3",
		"componentType":5126,
		"min":[-61.20633316040039,
		-13.360454559326172,
		-39.295623779296878],
		"count":7820,
		"byteOffset":0,
		"max":[61.72736358642578,
		121.39965057373047,
		64.27181243896485]
	},
	{
		"bufferView":3,
		"type":"VEC3",
		"componentType":5126,
		"min":[-0.9999999403953552,
		-1.0,
		-1.0],
		"count":7820,
		"byteOffset":12,
		"max":[0.9999985694885254,
		1.0,
		1.0]
	},
	{
		"bufferView":3,
		"type":"VEC2",
		"componentType":5126,
		"min":[0.10486207157373429,
		0.1790209412574768],
		"count":7820,
		"byteOffset":24,
		"max":[0.9254092574119568,
		0.9236611127853394]
	},
	{
		"bufferView":4,
		"type":"SCALAR",
		"componentType":5123,
		"min":[0],
		"count":15000,
		"byteOffset":0,
		"max":[7458]
	},
	{
		"bufferView":5,
		"type":"VEC3",
		"componentType":5126,
		"min":[-0.8328412175178528,
		-0.9121001362800598,
		-0.5846661329269409],
		"count":7459,
		"byteOffset":0,
		"max":[0.8258813619613648,
		0.8608226776123047,
		0.7724407911300659]
	},
	{
		"bufferView":5,
		"type":"VEC3",
		"componentType":5126,
		"min":[-0.9997190237045288,
		-0.9997413158416748,
		-0.9999974966049194],
		"count":7459,
		"byteOffset":12,
		"max":[0.9982285499572754,
		0.9974730014801025,
		0.9992212653160095]
	},
	{
		"bufferView":5,
		"type":"VEC2",
		"componentType":5126,
		"min":[0.0030278421472758056,
		-0.9969123601913452],
		"count":7459,
		"byteOffset":24,
		"max":[0.9963050484657288,
		-0.0030881166458129884]
	},
	{
		"bufferView":6,
		"type":"SCALAR",
		"componentType":5126,
		"min":[0.0],
		"count":301,
		"byteOffset":0,
		"max":[10.0]
	},
	{
		"bufferView":6,
		"type":"VEC4",
		"componentType":5126,
		"min":[-0.7071067690849304,
		0.0,
		0.0,
		-0.7071067690849304],
		"count":301,
		"byteOffset":1204,
		"max":[0.7071067690849304,
		0.7071067690849304,
		0.7071067690849304,
		0.7071067690849304]
	}],
	"bufferViews":[{
		"buffer":0,
		"byteOffset":0,
		"target":34963,
		"byteLength":1536
	},
	{
		"buffer":0,
		"byteOffset":1536,
		"target":34962,
		"byteLength":9216,
		"byteStride":32
	},
	{
		"buffer":1,
		"byteOffset":0,
		"target":34963,
		"byteLength":42144
	},
	{
		"buffer":1,
		"byteOffset":42144,
		"target":34962,
		"byteLength":250240,
		"byteStride":32
	},
	{
		"buffer":2,
		"byteOffset":0,
		"target":34963,
		"byteLength":30000
	},
	{
		"buffer":2,
		"byteOffset":30000,
		"target":34962,
		"byteLength":238688,
		"byteStride":32
	},
	{
		"buffer":3,
		"byteOffset":0,
		"byteLength":6020
	}],
	"buffers":[{
		"uri":"data:application/octet-stream;base64,",
		"byteLength":10752
	},
	{
		"uri":"data:application/octet-stream;base64,",
		"byteLength":292384
	},
	{
		"uri":"data:application/octet-stream;base64,",
		"byteLength":268688
	},
	{
		"uri":"data:application/octet-stream;base64,",
		"byteLength":6020
	}],
	"images":[{
		"uri":"data:image/jpeg;base64,"
	},
	{
		"uri":"data:image/jpeg;base64,"
	}],
	"samplers":[{
		"magFilter":9729,
		"minFilter":9729,
		"wrapS":10497,
		"wrapT":10497
	},
	{
		"magFilter":9729,
		"minFilter":9729,
		"wrapS":10497,
		"wrapT":10497
	}],
	"textures":[{
		"sampler":0,
		"source":0
	},
	{
		"sampler":1,
		"source":1
	}],
	"materials":[{
		"doubleSided":true,
		"pbrMetallicRoughness":{
			"baseColorTexture":{
				"index":0
			},
			"baseColorFactor":[0.800000011920929,
			0.800000011920929,
			0.800000011920929,
			1.0],
			"metallicFactor":0.0,
			"roughnessFactor":0.5356143810225276
		},
		"emissiveFactor":[0.0,
		0.0,
		0.0],
		"alphaMode":"OPAQUE",
		"name":"texture.1"
	},
	{
		"doubleSided":true,
		"pbrMetallicRoughness":{
			"baseColorTexture":{
				"index":1
			},
			"baseColorFactor":[0.800000011920929,
			0.800000011920929,
			0.800000011920929,
			1.0],
			"metallicFactor":0.0,
			"roughnessFactor":0.5356143810225276
		},
		"emissiveFactor":[0.0,
		0.0,
		0.0],
		"alphaMode":"OPAQUE",
		"name":"texture"
	}],
	"animations":[{
		"samplers":[{
			"input":12,
			"interpolation":"LINEAR",
			"output":13
		}],
		"channels":[{
			"sampler":0,
			"target":{
				"node":3,
				"path":"rotation"
			}
		}]
	}]
}